<svg width="22" height="22" viewBox="0 0 22 22" fill="none" xmlns="http://www.w3.org/2000/svg">
<path d="M10.7958 14.9285C14.7012 14.9285 17.8672 11.7625 17.8672 7.8571C17.8672 3.95166 14.7012 0.785675 10.7958 0.785675C6.89035 0.785675 3.72437 3.95166 3.72437 7.8571C3.72437 11.7625 6.89035 14.9285 10.7958 14.9285Z" stroke="black" stroke-linecap="round" stroke-linejoin="round"/>
<path d="M10.7957 10.9999C12.5314 10.9999 13.9385 9.59284 13.9385 7.85709C13.9385 6.12134 12.5314 4.71423 10.7957 4.71423C9.05994 4.71423 7.65283 6.12134 7.65283 7.85709C7.65283 9.59284 9.05994 10.9999 10.7957 10.9999Z" stroke="black" stroke-linecap="round" stroke-linejoin="round"/>
<path d="M9.42858 14.8028L8.04572 20.6171C8.01836 20.7276 7.96777 20.831 7.89732 20.9204C7.82687 21.0098 7.73818 21.0832 7.63715 21.1357C7.53053 21.182 7.41553 21.2058 7.2993 21.2058C7.18306 21.2058 7.06806 21.182 6.96144 21.1357L1.7443 18.8571C1.63486 18.8054 1.53857 18.7295 1.46265 18.6353C1.38672 18.541 1.33314 18.4307 1.30592 18.3128C1.27871 18.1948 1.27856 18.0723 1.30549 17.9542C1.33243 17.8362 1.38574 17.7259 1.46144 17.6314L5.50001 12.5714M12.5714 14.7243L13.9857 20.6171C14.0138 20.7295 14.0665 20.8342 14.1398 20.9239C14.2132 21.0135 14.3054 21.0859 14.41 21.1357C14.5137 21.1825 14.6262 21.2068 14.74 21.2068C14.8538 21.2068 14.9663 21.1825 15.07 21.1357L20.2557 18.8571C20.3668 18.806 20.4644 18.7297 20.5408 18.6342C20.6172 18.5387 20.6702 18.4267 20.6957 18.3071C20.7255 18.1901 20.7268 18.0677 20.6994 17.9501C20.6721 17.8325 20.6169 17.7232 20.5386 17.6314L16.3272 12.2728" stroke="black" stroke-linecap="round" stroke-linejoin="round"/>
</svg>
