<svg width="29" height="25" viewBox="0 0 29 25" fill="none" xmlns="http://www.w3.org/2000/svg">
<path d="M10.8329 8.51039L10.9311 7.79575C11.0443 6.97145 11.4612 6.21819 12.1 5.6745C12.7385 5.13114 13.5559 4.83335 14.3998 4.8333L10.8329 8.51039ZM10.8329 8.51039L11.5365 8.35153M10.8329 8.51039L11.5365 8.35153M11.5365 8.35153C12.0818 8.22842 12.6398 8.16637 13.1998 8.16664H13.2M11.5365 8.35153L13.2 8.16664M13.2 8.16664H17.2524H17.3106M13.2 8.16664H17.3106M17.3106 8.16664L17.3673 8.15326M17.3106 8.16664L17.3673 8.15326M17.3673 8.15326L17.4513 8.13342L17.9293 8.02055M17.3673 8.15326L17.9293 8.02055M17.9293 8.02055L17.825 7.54058M17.9293 8.02055L17.825 7.54058M17.825 7.54058C17.6576 6.77065 17.2237 6.08298 16.5995 5.59121M17.825 7.54058L16.5995 5.59121M16.5995 5.59121C15.9756 5.09969 15.199 4.83302 14.4 4.8333L16.5995 5.59121ZM4.65462 12.4111C4.78722 12.519 4.87074 12.6682 4.8936 12.8281L4.9 12.932V13.5C4.9 13.7472 4.95508 13.9848 5.05609 14.1981L5.73002 15.6215L6.00057 14.07C6.17132 13.0908 6.55238 12.1567 7.11968 11.3287C7.68701 10.5006 8.42807 9.79682 9.29534 9.26399L9.56699 9.09709L9.53027 8.78039C9.45348 8.11796 9.52137 7.4471 9.72974 6.81147C9.93813 6.1758 10.2825 5.58905 10.7413 5.08996C11.2001 4.59082 11.763 4.19059 12.3937 3.91626C13.0244 3.64193 13.7081 3.49992 14.4 3.49997C15.4739 3.50005 16.5168 3.84196 17.3694 4.47131C18.2202 5.09929 18.8341 5.97831 19.121 6.97287L19.1818 7.20603L19.3059 7.68167L19.7836 7.56569L22.0272 7.02094C22.0273 7.02093 22.0273 7.02091 22.0274 7.02089C22.1247 6.99737 22.2262 6.99407 22.3251 7.01127C22.424 7.02847 22.5173 7.06568 22.599 7.11977L22.8751 6.70291L22.599 7.11977C22.6806 7.17383 22.7485 7.24332 22.7989 7.323C22.8469 7.39871 22.8782 7.48223 22.8917 7.56856L22.9 7.68442V9.7783V9.99577L23.0591 10.144C23.6902 10.7323 24.207 11.4252 24.5856 12.1895L24.7483 12.5426L24.8823 12.8333H25.2024H25.7999C25.8 12.8333 25.8 12.8333 25.8 12.8333C25.9755 12.8333 26.1427 12.8961 26.2702 13.0064C26.3941 13.1135 26.4719 13.2575 26.4936 13.4111L26.5 13.5153V17V17C26.5 17.1072 26.4729 17.2134 26.4201 17.3094C26.3694 17.4014 26.2964 17.4818 26.2059 17.5432L26.1049 17.5996L24.7159 18.2759L24.5697 18.3471L24.4933 18.4908C23.9586 19.4966 23.1837 20.365 22.232 21.0229L21.9266 21.2224L21.7 21.3703V21.641V22.8332C21.7 22.8333 21.7 22.8333 21.7 22.8333C21.7 22.9924 21.64 23.1483 21.5278 23.2709C21.4179 23.3911 21.2649 23.4713 21.0956 23.4936L20.9855 23.5H17.4001C17.4 23.5 17.4 23.5 17.4 23.5C17.2245 23.4999 17.0573 23.4372 16.9298 23.3269C16.8059 23.2198 16.7281 23.0758 16.7064 22.9222L16.6991 22.8026L16.6702 22.3333H16.2H15H14.5001L14.5 22.8332C14.5 22.9924 14.44 23.1483 14.3278 23.2709C14.2179 23.3911 14.0649 23.4713 13.8956 23.4936L13.7855 23.5H10.2001C10.2 23.5 10.2 23.5 10.2 23.5C10.0245 23.4999 9.85733 23.4372 9.72976 23.3269C9.60589 23.2198 9.52814 23.0758 9.50642 22.9222L9.5 22.8179V21.641V21.363L9.26395 21.2163C8.45229 20.7118 7.75212 20.0569 7.2031 19.29C6.6541 18.523 6.26692 17.6589 6.06316 16.7474L5.99857 16.4585L5.71418 16.3762C5.10244 16.1992 4.56371 15.8443 4.1696 15.3622C3.77717 14.8821 3.54664 14.2985 3.50666 13.6902L3.5 13.4916V12.917C3.50025 12.7515 3.56532 12.5898 3.68613 12.4654C3.8074 12.3405 3.97588 12.2629 4.15816 12.2525C4.3405 12.242 4.51807 12.3 4.65462 12.4111ZM19.8 11.8333C19.3536 11.8333 18.9228 12.0056 18.6029 12.3165C18.2826 12.6279 18.1 13.0533 18.1 13.5C18.1 13.9466 18.2826 14.372 18.6029 14.6834C18.9228 14.9944 19.3536 15.1666 19.8 15.1666C20.2464 15.1666 20.6772 14.9944 20.9971 14.6834C21.3174 14.372 21.5 13.9466 21.5 13.5C21.5 13.0533 21.3174 12.6279 20.9971 12.3165C20.6772 12.0056 20.2464 11.8333 19.8 11.8333Z" stroke="black"/>
</svg>
