<svg width="364" height="215" viewBox="0 0 364 215" fill="none" xmlns="http://www.w3.org/2000/svg">
<mask id="mask0_158_2711" style="mask-type:luminance" maskUnits="userSpaceOnUse" x="0" y="0" width="381" height="215">
<path d="M380.468 7.62939e-06H0V214.109H380.468V7.62939e-06Z" fill="white"/>
</mask>
<g mask="url(#mask0_158_2711)">
<path d="M105.331 157.535V152.979H108.659C108.879 152.979 109.082 153.005 109.263 153.055C109.444 153.105 109.6 153.18 109.728 153.278C109.857 153.375 109.957 153.498 110.029 153.649C110.099 153.796 110.135 153.966 110.135 154.159C110.135 154.304 110.118 154.432 110.085 154.541C110.052 154.649 110.007 154.741 109.949 154.819C109.89 154.897 109.823 154.962 109.745 155.015C109.667 155.068 109.586 155.107 109.506 155.132C109.715 155.199 109.884 155.318 110.018 155.494C110.152 155.67 110.219 155.89 110.219 156.158C110.219 156.367 110.185 156.556 110.116 156.724C110.046 156.894 109.949 157.039 109.82 157.158C109.692 157.278 109.539 157.373 109.358 157.437C109.177 157.501 108.976 157.535 108.754 157.535H105.331ZM106.701 155.555V154.886H108.667C108.893 154.886 109.06 154.845 109.169 154.761C109.277 154.677 109.33 154.535 109.33 154.334C109.33 154.214 109.308 154.117 109.261 154.044C109.216 153.972 109.149 153.916 109.063 153.874C108.976 153.835 108.876 153.807 108.756 153.796C108.637 153.785 108.506 153.777 108.358 153.777H106.124V156.746H108.428C108.57 156.746 108.701 156.735 108.823 156.715C108.943 156.693 109.049 156.659 109.135 156.612C109.224 156.565 109.291 156.503 109.339 156.428C109.386 156.353 109.411 156.258 109.411 156.146C109.411 155.96 109.352 155.815 109.236 155.712C109.119 155.608 108.949 155.558 108.723 155.558H106.701V155.555Z" fill="url(#paint0_linear_158_2711)"/>
</g>
<mask id="mask1_158_2711" style="mask-type:luminance" maskUnits="userSpaceOnUse" x="0" y="0" width="381" height="215">
<path d="M380.468 7.62939e-06H0V214.109H380.468V7.62939e-06Z" fill="white"/>
</mask>
<g mask="url(#mask1_158_2711)">
<path d="M115.608 152.982H116.385V155.525C116.385 155.876 116.341 156.183 116.249 156.442C116.157 156.704 116.012 156.919 115.817 157.092C115.622 157.262 115.369 157.39 115.057 157.473C114.745 157.557 114.369 157.599 113.926 157.599C113.489 157.599 113.113 157.557 112.803 157.473C112.491 157.39 112.238 157.262 112.043 157.092C111.848 156.921 111.703 156.704 111.611 156.442C111.519 156.183 111.475 155.876 111.475 155.525V152.982H112.294V155.525C112.294 155.753 112.322 155.951 112.377 156.113C112.433 156.275 112.525 156.409 112.653 156.514C112.781 156.62 112.951 156.696 113.163 156.743C113.374 156.79 113.639 156.816 113.951 156.816C114.263 156.816 114.528 156.79 114.739 156.743C114.951 156.696 115.124 156.618 115.249 156.514C115.377 156.411 115.469 156.277 115.525 156.113C115.58 155.951 115.608 155.753 115.608 155.525V152.982Z" fill="url(#paint1_linear_158_2711)"/>
</g>
<mask id="mask2_158_2711" style="mask-type:luminance" maskUnits="userSpaceOnUse" x="0" y="0" width="381" height="215">
<path d="M380.468 7.62939e-06H0V214.109H380.468V7.62939e-06Z" fill="white"/>
</mask>
<g mask="url(#mask2_158_2711)">
<path d="M118.569 152.982H117.775V157.538H118.569V152.982Z" fill="url(#paint2_linear_158_2711)"/>
</g>
<mask id="mask3_158_2711" style="mask-type:luminance" maskUnits="userSpaceOnUse" x="0" y="0" width="381" height="215">
<path d="M380.468 7.62939e-06H0V214.109H380.468V7.62939e-06Z" fill="white"/>
</mask>
<g mask="url(#mask3_158_2711)">
<path d="M120.028 157.535V152.982H120.822V156.74H123.883V157.535H120.028Z" fill="url(#paint3_linear_158_2711)"/>
</g>
<mask id="mask4_158_2711" style="mask-type:luminance" maskUnits="userSpaceOnUse" x="0" y="0" width="381" height="215">
<path d="M380.468 7.62939e-06H0V214.109H380.468V7.62939e-06Z" fill="white"/>
</mask>
<g mask="url(#mask4_158_2711)">
<path d="M125.078 157.535V152.979H127.713C128.033 152.979 128.331 153.032 128.601 153.141C128.872 153.25 129.106 153.403 129.303 153.598C129.498 153.796 129.652 154.03 129.763 154.304C129.874 154.577 129.93 154.878 129.93 155.21C129.93 155.539 129.874 155.848 129.763 156.13C129.652 156.414 129.498 156.659 129.303 156.866C129.108 157.072 128.874 157.237 128.601 157.354C128.329 157.473 128.033 157.532 127.713 157.532H125.078V157.535ZM127.713 156.74C127.916 156.74 128.106 156.701 128.278 156.626C128.451 156.551 128.601 156.448 128.73 156.317C128.858 156.185 128.955 156.027 129.028 155.843C129.097 155.659 129.133 155.461 129.133 155.249C129.133 155.034 129.097 154.839 129.028 154.655C128.955 154.474 128.858 154.318 128.73 154.189C128.601 154.061 128.451 153.958 128.278 153.885C128.106 153.813 127.916 153.777 127.713 153.777H125.866V156.74H127.713Z" fill="url(#paint4_linear_158_2711)"/>
</g>
<mask id="mask5_158_2711" style="mask-type:luminance" maskUnits="userSpaceOnUse" x="0" y="0" width="381" height="215">
<path d="M380.468 7.62939e-06H0V214.109H380.468V7.62939e-06Z" fill="white"/>
</mask>
<g mask="url(#mask5_158_2711)">
<path d="M132.044 152.982H131.25V157.538H132.044V152.982Z" fill="url(#paint5_linear_158_2711)"/>
</g>
<mask id="mask6_158_2711" style="mask-type:luminance" maskUnits="userSpaceOnUse" x="0" y="0" width="381" height="215">
<path d="M380.468 7.62939e-06H0V214.109H380.468V7.62939e-06Z" fill="white"/>
</mask>
<g mask="url(#mask6_158_2711)">
<path d="M134.242 154.203V157.538H133.484V153.403C133.484 153.258 133.52 153.141 133.593 153.055C133.665 152.968 133.765 152.926 133.891 152.926C133.949 152.926 134.005 152.938 134.061 152.965C134.114 152.991 134.172 153.032 134.231 153.091L137.442 156.28V152.943H138.2V157.117C138.2 157.267 138.163 157.384 138.091 157.468C138.019 157.552 137.924 157.593 137.807 157.593C137.679 157.593 137.556 157.538 137.445 157.423L134.242 154.203Z" fill="url(#paint6_linear_158_2711)"/>
</g>
<mask id="mask7_158_2711" style="mask-type:luminance" maskUnits="userSpaceOnUse" x="0" y="0" width="381" height="215">
<path d="M380.468 7.62939e-06H0V214.109H380.468V7.62939e-06Z" fill="white"/>
</mask>
<g mask="url(#mask7_158_2711)">
<path d="M141.67 157.535C141.352 157.535 141.06 157.476 140.79 157.356C140.52 157.237 140.288 157.075 140.088 156.869C139.89 156.662 139.734 156.417 139.625 156.133C139.514 155.848 139.458 155.541 139.458 155.213C139.458 154.878 139.514 154.574 139.625 154.298C139.737 154.022 139.89 153.788 140.088 153.593C140.286 153.398 140.52 153.247 140.79 153.141C141.06 153.035 141.352 152.982 141.67 152.982H144.135V153.777H141.67C141.467 153.777 141.277 153.813 141.102 153.885C140.929 153.958 140.779 154.061 140.653 154.189C140.528 154.318 140.43 154.474 140.358 154.652C140.286 154.833 140.252 155.031 140.252 155.249C140.252 155.461 140.288 155.661 140.358 155.843C140.43 156.027 140.528 156.185 140.653 156.317C140.779 156.448 140.929 156.551 141.102 156.626C141.274 156.701 141.464 156.74 141.67 156.74H143.617V155.555H141.564V154.884H144.419V157.535H141.67Z" fill="url(#paint7_linear_158_2711)"/>
</g>
<mask id="mask8_158_2711" style="mask-type:luminance" maskUnits="userSpaceOnUse" x="0" y="0" width="381" height="215">
<path d="M380.468 7.62939e-06H0V214.109H380.468V7.62939e-06Z" fill="white"/>
</mask>
<g mask="url(#mask8_158_2711)">
<path d="M151.817 156.013L151.109 157.348C151.062 157.432 151.003 157.493 150.934 157.535C150.861 157.577 150.786 157.599 150.703 157.599C150.519 157.599 150.382 157.515 150.29 157.348L147.937 152.982H148.889L150.73 156.484L151.418 155.243L150.235 152.982H151.193L152.95 156.484L154.802 152.982H155.691L153.337 157.348C153.29 157.432 153.232 157.493 153.159 157.535C153.087 157.577 153.009 157.599 152.925 157.599C152.842 157.599 152.764 157.577 152.694 157.535C152.624 157.493 152.566 157.432 152.519 157.348L151.817 156.013Z" fill="url(#paint8_linear_158_2711)"/>
</g>
<mask id="mask9_158_2711" style="mask-type:luminance" maskUnits="userSpaceOnUse" x="0" y="0" width="381" height="215">
<path d="M380.468 7.62939e-06H0V214.109H380.468V7.62939e-06Z" fill="white"/>
</mask>
<g mask="url(#mask9_158_2711)">
<path d="M156.805 157.535V152.979H160.866V153.774H157.593V156.737H160.874V157.532H156.805V157.535ZM158.175 154.886H160.699V155.558H158.175V154.886Z" fill="url(#paint9_linear_158_2711)"/>
</g>
<mask id="mask10_158_2711" style="mask-type:luminance" maskUnits="userSpaceOnUse" x="0" y="0" width="381" height="215">
<path d="M380.468 7.62939e-06H0V214.109H380.468V7.62939e-06Z" fill="white"/>
</mask>
<g mask="url(#mask10_158_2711)">
<path d="M166.927 157.535L166.244 156.389H164.091L164.467 155.745H165.863L164.849 154.042L162.782 157.538H161.874L164.49 153.177C164.534 153.097 164.59 153.035 164.651 152.991C164.715 152.946 164.788 152.921 164.877 152.921C164.966 152.921 165.038 152.943 165.1 152.991C165.161 153.035 165.214 153.099 165.258 153.177L167.882 157.538H166.927V157.535Z" fill="url(#paint10_linear_158_2711)"/>
</g>
<mask id="mask11_158_2711" style="mask-type:luminance" maskUnits="userSpaceOnUse" x="0" y="0" width="381" height="215">
<path d="M380.468 7.62939e-06H0V214.109H380.468V7.62939e-06Z" fill="white"/>
</mask>
<g mask="url(#mask11_158_2711)">
<path d="M168.996 157.535V152.982H169.793V156.74H172.854V157.535H168.996Z" fill="url(#paint11_linear_158_2711)"/>
</g>
<mask id="mask12_158_2711" style="mask-type:luminance" maskUnits="userSpaceOnUse" x="0" y="0" width="381" height="215">
<path d="M380.468 7.62939e-06H0V214.109H380.468V7.62939e-06Z" fill="white"/>
</mask>
<g mask="url(#mask12_158_2711)">
<path d="M174.806 157.535V153.777H173.079V152.982H177.327V153.777H175.6V157.535H174.806Z" fill="url(#paint12_linear_158_2711)"/>
</g>
<mask id="mask13_158_2711" style="mask-type:luminance" maskUnits="userSpaceOnUse" x="0" y="0" width="381" height="215">
<path d="M380.468 7.62939e-06H0V214.109H380.468V7.62939e-06Z" fill="white"/>
</mask>
<g mask="url(#mask13_158_2711)">
<path d="M178.48 152.982H179.274V157.557H178.48V152.982ZM182.14 157.554V155.575H179.848V154.867H182.14V152.982H182.934V157.557H182.14V157.554Z" fill="url(#paint13_linear_158_2711)"/>
</g>
<mask id="mask14_158_2711" style="mask-type:luminance" maskUnits="userSpaceOnUse" x="0" y="0" width="381" height="215">
<path d="M380.468 7.62939e-06H0V214.109H380.468V7.62939e-06Z" fill="white"/>
</mask>
<g mask="url(#mask14_158_2711)">
<path d="M188.276 157.535V153.777H186.546V152.982H190.796V153.777H189.07V157.535H188.276Z" fill="url(#paint14_linear_158_2711)"/>
</g>
<mask id="mask15_158_2711" style="mask-type:luminance" maskUnits="userSpaceOnUse" x="0" y="0" width="381" height="215">
<path d="M380.468 7.62939e-06H0V214.109H380.468V7.62939e-06Z" fill="white"/>
</mask>
<g mask="url(#mask15_158_2711)">
<path d="M193.921 157.535C193.604 157.535 193.311 157.476 193.041 157.356C192.771 157.237 192.537 157.075 192.339 156.869C192.142 156.662 191.986 156.417 191.877 156.133C191.766 155.848 191.71 155.541 191.71 155.213C191.71 154.878 191.766 154.574 191.877 154.298C191.988 154.022 192.142 153.788 192.339 153.593C192.537 153.398 192.771 153.25 193.041 153.141C193.311 153.035 193.604 152.982 193.921 152.982H195.03C195.359 152.982 195.662 153.035 195.935 153.144C196.208 153.253 196.442 153.406 196.64 153.601C196.835 153.799 196.988 154.033 197.097 154.306C197.205 154.58 197.258 154.881 197.258 155.213C197.258 155.541 197.203 155.851 197.091 156.133C196.98 156.417 196.827 156.662 196.629 156.869C196.431 157.075 196.197 157.239 195.924 157.356C195.654 157.476 195.353 157.535 195.03 157.535H193.921ZM195.027 156.74C195.236 156.74 195.428 156.701 195.604 156.626C195.779 156.551 195.93 156.448 196.058 156.317C196.186 156.185 196.283 156.027 196.356 155.843C196.425 155.659 196.462 155.461 196.462 155.249C196.462 155.034 196.425 154.839 196.356 154.655C196.283 154.474 196.186 154.318 196.058 154.189C195.93 154.061 195.779 153.958 195.604 153.885C195.428 153.813 195.236 153.777 195.027 153.777H193.919C193.715 153.777 193.526 153.813 193.353 153.885C193.181 153.958 193.03 154.061 192.905 154.189C192.78 154.318 192.682 154.474 192.61 154.652C192.537 154.831 192.504 155.031 192.504 155.249C192.504 155.461 192.54 155.661 192.61 155.843C192.682 156.027 192.78 156.183 192.905 156.317C193.03 156.448 193.178 156.551 193.353 156.626C193.526 156.701 193.715 156.74 193.919 156.74H195.027Z" fill="url(#paint15_linear_158_2711)"/>
</g>
<mask id="mask16_158_2711" style="mask-type:luminance" maskUnits="userSpaceOnUse" x="0" y="0" width="381" height="215">
<path d="M380.468 7.62939e-06H0V214.109H380.468V7.62939e-06Z" fill="white"/>
</mask>
<g mask="url(#mask16_158_2711)">
<path d="M200.603 157.535C200.286 157.535 199.993 157.476 199.723 157.356C199.453 157.237 199.219 157.075 199.021 156.869C198.824 156.662 198.668 156.417 198.559 156.133C198.448 155.848 198.392 155.541 198.392 155.213C198.392 154.878 198.448 154.574 198.559 154.298C198.67 154.022 198.824 153.788 199.021 153.593C199.219 153.398 199.453 153.247 199.723 153.141C199.993 153.035 200.286 152.982 200.603 152.982H203.068V153.777H200.603C200.4 153.777 200.211 153.813 200.038 153.885C199.865 153.958 199.715 154.061 199.59 154.189C199.464 154.318 199.367 154.474 199.294 154.652C199.222 154.833 199.188 155.031 199.188 155.249C199.188 155.461 199.225 155.661 199.294 155.843C199.367 156.027 199.464 156.185 199.59 156.317C199.715 156.448 199.865 156.551 200.038 156.626C200.211 156.701 200.4 156.74 200.603 156.74H202.55V155.555H200.498V154.884H203.352V157.535H200.603Z" fill="url(#paint16_linear_158_2711)"/>
</g>
<mask id="mask17_158_2711" style="mask-type:luminance" maskUnits="userSpaceOnUse" x="0" y="0" width="381" height="215">
<path d="M380.468 7.62939e-06H0V214.109H380.468V7.62939e-06Z" fill="white"/>
</mask>
<g mask="url(#mask17_158_2711)">
<path d="M204.712 157.535V152.979H208.773V153.774H205.5V156.737H208.781V157.532H204.712V157.535ZM206.082 154.886H208.605V155.558H206.082V154.886Z" fill="url(#paint17_linear_158_2711)"/>
</g>
<mask id="mask18_158_2711" style="mask-type:luminance" maskUnits="userSpaceOnUse" x="0" y="0" width="381" height="215">
<path d="M380.468 7.62939e-06H0V214.109H380.468V7.62939e-06Z" fill="white"/>
</mask>
<g mask="url(#mask18_158_2711)">
<path d="M211.544 157.535V153.777H209.817V152.982H214.067V153.777H212.34V157.535H211.544Z" fill="url(#paint18_linear_158_2711)"/>
</g>
<mask id="mask19_158_2711" style="mask-type:luminance" maskUnits="userSpaceOnUse" x="0" y="0" width="381" height="215">
<path d="M380.468 7.62939e-06H0V214.109H380.468V7.62939e-06Z" fill="white"/>
</mask>
<g mask="url(#mask19_158_2711)">
<path d="M215.218 152.982H216.011V157.557H215.218V152.982ZM218.88 157.554V155.575H216.588V154.867H218.88V152.982H219.674V157.557H218.88V157.554Z" fill="url(#paint19_linear_158_2711)"/>
</g>
<mask id="mask20_158_2711" style="mask-type:luminance" maskUnits="userSpaceOnUse" x="0" y="0" width="381" height="215">
<path d="M380.468 7.62939e-06H0V214.109H380.468V7.62939e-06Z" fill="white"/>
</mask>
<g mask="url(#mask20_158_2711)">
<path d="M221.089 157.535V152.979H225.15V153.774H221.877V156.737H225.158V157.532H221.089V157.535ZM222.459 154.886H224.983V155.558H222.459V154.886Z" fill="url(#paint20_linear_158_2711)"/>
</g>
<mask id="mask21_158_2711" style="mask-type:luminance" maskUnits="userSpaceOnUse" x="0" y="0" width="381" height="215">
<path d="M380.468 7.62939e-06H0V214.109H380.468V7.62939e-06Z" fill="white"/>
</mask>
<g mask="url(#mask21_158_2711)">
<path d="M230.693 157.535L229.54 156.269H227.838V155.567H229.735C230.021 155.567 230.239 155.489 230.386 155.332C230.531 155.176 230.606 154.95 230.606 154.652C230.606 154.357 230.531 154.136 230.378 153.991C230.225 153.846 230.01 153.774 229.737 153.774H227.258V157.532H226.47V152.977H229.737C229.996 152.977 230.228 153.016 230.431 153.094C230.634 153.172 230.81 153.281 230.949 153.426C231.091 153.57 231.2 153.743 231.275 153.95C231.35 154.153 231.386 154.385 231.386 154.638C231.386 155.017 231.303 155.338 231.138 155.594C230.974 155.851 230.743 156.035 230.448 156.149L231.818 157.535H230.693Z" fill="url(#paint21_linear_158_2711)"/>
</g>
<mask id="mask22_158_2711" style="mask-type:luminance" maskUnits="userSpaceOnUse" x="0" y="0" width="381" height="215">
<path d="M380.468 7.62939e-06H0V214.109H380.468V7.62939e-06Z" fill="white"/>
</mask>
<g mask="url(#mask22_158_2711)">
<path d="M259.37 144.234C259.058 143.796 258.726 143.375 258.339 142.862L250.025 153.545L253.512 150.219C253.691 150.083 253.869 149.946 254.044 149.807C254.37 149.55 254.576 149.564 254.827 149.924C255.298 150.599 257.214 153.264 258.097 154.493C258.125 154.529 258.15 154.566 258.172 154.599C258.208 154.649 258.239 154.697 258.27 154.739C258.295 154.775 258.317 154.806 258.339 154.836C258.376 154.886 258.406 154.931 258.434 154.967H267.096C267.077 154.945 267.057 154.92 267.04 154.895C265.116 152.257 261.278 146.888 259.37 144.234Z" fill="url(#paint22_linear_158_2711)"/>
</g>
<mask id="mask23_158_2711" style="mask-type:luminance" maskUnits="userSpaceOnUse" x="0" y="0" width="381" height="215">
<path d="M380.468 7.62939e-06H0V214.109H380.468V7.62939e-06Z" fill="white"/>
</mask>
<g mask="url(#mask23_158_2711)">
<path d="M256.958 140.777C252.613 146.935 247.165 154.1 241.837 159.269C239.093 161.923 236.21 164.407 232.684 165.957C231.456 166.492 230.105 166.891 228.782 167.036C227.896 167.134 227.072 167.055 226.303 166.816C223.312 165.458 221.88 162.849 221.195 160.682H223.053C223.217 160.83 223.39 160.972 223.574 161.103C224.757 161.97 226.039 162.16 227.44 161.731C229.771 161.011 231.768 159.695 233.653 158.201C237.182 155.388 240.179 152.045 242.976 148.527C244.736 146.319 246.379 144.022 248.087 141.778C248.443 141.318 248.452 140.972 248.101 140.49C247.098 139.115 239.021 127.755 235.166 122.396H243.814C248.204 128.51 255.507 138.781 256.958 140.777Z" fill="url(#paint23_linear_158_2711)"/>
</g>
<mask id="mask24_158_2711" style="mask-type:luminance" maskUnits="userSpaceOnUse" x="0" y="0" width="381" height="215">
<path d="M380.468 7.62939e-06H0V214.109H380.468V7.62939e-06Z" fill="white"/>
</mask>
<g mask="url(#mask24_158_2711)">
<path d="M270.564 107.353C270.046 103.16 266.87 101.041 262.698 101.328C260.358 101.487 258.303 102.611 256.342 103.81C251.354 106.848 247 110.623 243.179 114.981C242.728 115.488 242.288 116.001 241.853 116.528C241.706 116.706 241.566 116.882 241.427 117.066C241.474 117.102 241.519 117.138 241.561 117.183C241.878 116.932 242.19 116.67 242.502 116.4C242.881 116.071 243.254 115.733 243.625 115.399C243.733 115.307 243.845 115.209 243.953 115.112C247.268 112.19 250.76 109.519 254.601 107.32C256.403 106.285 258.247 105.351 260.322 104.986C262.556 104.587 264.272 105.56 264.695 107.523C264.848 108.226 264.932 109.001 264.804 109.692C264.475 111.44 264.158 113.219 263.57 114.886C261.598 120.503 258.086 126.595 254.961 131.669L250.73 127.3L252.512 130.044C252.507 130.049 252.507 130.055 252.501 130.055C254.278 132.787 256.055 135.519 257.91 138.365C258.161 138.042 258.356 137.833 258.503 137.601C260.25 134.766 262.074 131.978 263.712 129.082C266.13 124.791 268.188 120.331 269.561 115.583C270.338 112.898 270.912 110.183 270.564 107.353Z" fill="url(#paint24_linear_158_2711)"/>
</g>
<mask id="mask25_158_2711" style="mask-type:luminance" maskUnits="userSpaceOnUse" x="0" y="0" width="381" height="215">
<path d="M380.468 7.62939e-06H0V214.109H380.468V7.62939e-06Z" fill="white"/>
</mask>
<g mask="url(#mask25_158_2711)">
<path d="M158.075 115.402C160.259 116.924 162.615 118.217 165.105 119.249V105.443L158.075 112.48V115.402Z" fill="url(#paint25_linear_158_2711)"/>
</g>
<mask id="mask26_158_2711" style="mask-type:luminance" maskUnits="userSpaceOnUse" x="0" y="0" width="381" height="215">
<path d="M380.468 7.62939e-06H0V214.109H380.468V7.62939e-06Z" fill="white"/>
</mask>
<g mask="url(#mask26_158_2711)">
<path d="M166.673 107.331V119.971C168.927 120.765 171.277 121.354 173.703 121.702V113.383L173.216 113.871L166.673 107.331Z" fill="url(#paint26_linear_158_2711)"/>
</g>
<mask id="mask27_158_2711" style="mask-type:luminance" maskUnits="userSpaceOnUse" x="0" y="0" width="381" height="215">
<path d="M380.468 7.62939e-06H0V214.109H380.468V7.62939e-06Z" fill="white"/>
</mask>
<g mask="url(#mask27_158_2711)">
<path d="M175.906 102.636L182.934 95.602V70.5585L175.906 76.0451V102.636Z" fill="url(#paint27_linear_158_2711)"/>
</g>
<mask id="mask28_158_2711" style="mask-type:luminance" maskUnits="userSpaceOnUse" x="0" y="0" width="381" height="215">
<path d="M380.468 7.62939e-06H0V214.109H380.468V7.62939e-06Z" fill="white"/>
</mask>
<g mask="url(#mask28_158_2711)">
<path d="M175.906 121.928C177.062 122.037 178.235 122.095 179.419 122.095C180.602 122.095 181.778 122.04 182.931 121.928V104.468L175.904 111.501V121.928H175.906Z" fill="url(#paint28_linear_158_2711)"/>
</g>
<mask id="mask29_158_2711" style="mask-type:luminance" maskUnits="userSpaceOnUse" x="0" y="0" width="381" height="215">
<path d="M380.468 7.62939e-06H0V214.109H380.468V7.62939e-06Z" fill="white"/>
</mask>
<g mask="url(#mask29_158_2711)">
<path d="M191.849 86.6808V63.6L184.819 69.0865V93.7174L191.849 86.6808Z" fill="url(#paint29_linear_158_2711)"/>
</g>
<mask id="mask30_158_2711" style="mask-type:luminance" maskUnits="userSpaceOnUse" x="0" y="0" width="381" height="215">
<path d="M380.468 7.62939e-06H0V214.109H380.468V7.62939e-06Z" fill="white"/>
</mask>
<g mask="url(#mask30_158_2711)">
<path d="M184.819 121.705C187.245 121.356 189.596 120.768 191.849 119.974V95.5435L184.819 102.58V121.705Z" fill="url(#paint30_linear_158_2711)"/>
</g>
<mask id="mask31_158_2711" style="mask-type:luminance" maskUnits="userSpaceOnUse" x="0" y="0" width="381" height="215">
<path d="M380.468 7.62939e-06H0V214.109H380.468V7.62939e-06Z" fill="white"/>
</mask>
<g mask="url(#mask31_158_2711)">
<path d="M193.735 62.1252V84.7934L200.765 77.7512V57.0122V56.6386L200.525 56.8226L193.735 62.1252Z" fill="url(#paint31_linear_158_2711)"/>
</g>
<mask id="mask32_158_2711" style="mask-type:luminance" maskUnits="userSpaceOnUse" x="0" y="0" width="381" height="215">
<path d="M380.468 7.62939e-06H0V214.109H380.468V7.62939e-06Z" fill="white"/>
</mask>
<g mask="url(#mask32_158_2711)">
<path d="M193.735 119.249C196.225 118.217 198.581 116.927 200.765 115.402V86.6195L193.735 93.6561V119.249Z" fill="url(#paint32_linear_158_2711)"/>
</g>
<mask id="mask33_158_2711" style="mask-type:luminance" maskUnits="userSpaceOnUse" x="0" y="0" width="381" height="215">
<path d="M380.468 7.62939e-06H0V214.109H380.468V7.62939e-06Z" fill="white"/>
</mask>
<g mask="url(#mask33_158_2711)">
<path d="M212.806 74.5647C213.756 77.7317 214.268 81.0911 214.268 84.5648C214.268 90.8515 212.6 96.759 209.675 101.858V77.6983L202.648 84.7321L202.628 84.746V84.8129L202.648 84.7934V114.002C205.305 111.9 207.673 109.438 209.675 106.703C214.229 100.498 216.917 92.8393 216.917 84.562C216.917 80.3245 216.212 76.2514 214.914 72.4515L212.806 74.5647Z" fill="url(#paint33_linear_158_2711)"/>
</g>
<mask id="mask34_158_2711" style="mask-type:luminance" maskUnits="userSpaceOnUse" x="0" y="0" width="381" height="215">
<path d="M380.468 7.62939e-06H0V214.109H380.468V7.62939e-06Z" fill="white"/>
</mask>
<g mask="url(#mask34_158_2711)">
<path d="M166.991 98.468L173.534 105.011L174.021 104.523V77.5254V77.5171L166.991 83.0064V83.012V98.468Z" fill="url(#paint34_linear_158_2711)"/>
</g>
<mask id="mask35_158_2711" style="mask-type:luminance" maskUnits="userSpaceOnUse" x="0" y="0" width="381" height="215">
<path d="M380.468 7.62939e-06H0V214.109H380.468V7.62939e-06Z" fill="white"/>
</mask>
<g mask="url(#mask35_158_2711)">
<path d="M165.105 96.5806V84.4812L158.075 89.9677V103.617L165.105 96.5806Z" fill="url(#paint35_linear_158_2711)"/>
</g>
<mask id="mask36_158_2711" style="mask-type:luminance" maskUnits="userSpaceOnUse" x="0" y="0" width="381" height="215">
<path d="M380.468 7.62939e-06H0V214.109H380.468V7.62939e-06Z" fill="white"/>
</mask>
<g mask="url(#mask36_158_2711)">
<path d="M209.675 49.6828L202.678 55.1443L202.631 55.1833V75.8861L209.675 68.8356V49.6828Z" fill="url(#paint36_linear_158_2711)"/>
</g>
<mask id="mask37_158_2711" style="mask-type:luminance" maskUnits="userSpaceOnUse" x="0" y="0" width="381" height="215">
<path d="M380.468 7.62939e-06H0V214.109H380.468V7.62939e-06Z" fill="white"/>
</mask>
<g mask="url(#mask37_158_2711)">
<path d="M212.062 60.6532L215.761 64.3527L202.631 77.4947L173.533 106.62L165.105 98.1892L156.19 107.116V91.4397L149.162 96.9235V101.861C148.508 100.712 147.912 99.5302 147.391 98.3063C146.558 96.3743 145.895 94.3475 145.422 92.251C144.865 89.7754 144.569 87.2049 144.569 84.5648C144.569 76.4632 147.341 68.9973 151.989 63.073C158.373 54.9268 168.294 49.6856 179.419 49.6856C186.477 49.6856 193.047 51.7961 198.545 55.4203L200.74 53.7085C194.679 49.5016 187.332 47.0344 179.419 47.0344C166.723 47.0344 155.482 53.3824 148.697 63.0758C144.427 69.1701 141.921 76.5803 141.921 84.5676C141.921 85.4932 141.954 86.4104 142.024 87.3192C142.35 91.8049 143.466 96.076 145.238 99.9902C146.313 102.374 147.63 104.621 149.165 106.709C149.984 107.824 150.861 108.895 151.792 109.915C152.048 110.197 152.307 110.467 152.572 110.74C153.499 111.696 154.479 112.6 155.504 113.45L156.19 112.764L165.105 103.84L173.533 112.271L202.631 83.143L209.675 76.0924L215.861 69.9006L218.58 67.1796L222.393 70.999L226.175 56.8728L212.062 60.6532Z" fill="#404040"/>
</g>
<path d="M105.467 150.245V128.34H125.003V132.168H109.261V146.42H125.034V150.245H105.467ZM112.057 137.501H124.187V140.724H112.057V137.501Z" fill="#404040"/>
<path d="M154.137 150.245L150.856 144.73H140.5L142.305 141.627H149.017L144.14 133.434L134.208 150.245H129.844L142.425 129.277C142.645 128.895 142.907 128.594 143.207 128.374C143.508 128.153 143.87 128.042 144.291 128.042C144.711 128.042 145.068 128.153 145.36 128.374C145.65 128.594 145.906 128.895 146.129 129.277L158.741 150.245H154.137Z" fill="#404040"/>
<path d="M171.174 150.245C169.648 150.245 168.239 149.957 166.946 149.386C165.651 148.814 164.529 148.031 163.576 147.036C162.624 146.04 161.88 144.861 161.348 143.495C160.816 142.129 160.551 140.654 160.551 139.065C160.551 137.459 160.816 135.993 161.348 134.666C161.88 133.339 162.624 132.21 163.576 131.276C164.529 130.342 165.654 129.62 166.946 129.107C168.242 128.594 169.651 128.337 171.174 128.337H183.034V132.162H171.174C170.191 132.162 169.283 132.338 168.45 132.689C167.618 133.041 166.899 133.528 166.297 134.15C165.696 134.772 165.225 135.516 164.882 136.38C164.54 137.245 164.37 138.198 164.37 139.244C164.37 140.267 164.54 141.223 164.882 142.107C165.222 142.99 165.696 143.749 166.297 144.382C166.899 145.014 167.618 145.511 168.45 145.873C169.283 146.236 170.191 146.417 171.174 146.417H180.536V140.724H170.662V137.501H184.388V150.245H171.174Z" fill="#404040"/>
<path d="M190.919 150.245V128.34H194.741V146.417H209.461V150.245H190.919Z" fill="#404040"/>
<path d="M270.748 125.887C268.322 125.887 266.358 127.819 266.358 130.2C266.358 132.583 268.322 134.513 270.748 134.513C273.174 134.513 275.137 132.583 275.137 130.2C275.137 127.819 273.174 125.887 270.748 125.887ZM270.748 133.905C268.667 133.905 266.979 132.243 266.979 130.2C266.979 128.153 268.667 126.497 270.748 126.497C272.828 126.497 274.516 128.153 274.516 130.2C274.516 132.246 272.828 133.905 270.748 133.905Z" fill="#404040"/>
<defs>
<linearGradient id="paint0_linear_158_2711" x1="107.775" y1="152.979" x2="107.775" y2="157.535" gradientUnits="userSpaceOnUse">
<stop stop-color="#28B446"/>
<stop offset="1" stop-color="#00F134"/>
</linearGradient>
<linearGradient id="paint1_linear_158_2711" x1="113.93" y1="152.982" x2="113.93" y2="157.599" gradientUnits="userSpaceOnUse">
<stop stop-color="#28B446"/>
<stop offset="1" stop-color="#00F134"/>
</linearGradient>
<linearGradient id="paint2_linear_158_2711" x1="118.172" y1="152.982" x2="118.172" y2="157.538" gradientUnits="userSpaceOnUse">
<stop stop-color="#28B446"/>
<stop offset="1" stop-color="#00F134"/>
</linearGradient>
<linearGradient id="paint3_linear_158_2711" x1="121.956" y1="152.982" x2="121.956" y2="157.535" gradientUnits="userSpaceOnUse">
<stop stop-color="#28B446"/>
<stop offset="1" stop-color="#00F134"/>
</linearGradient>
<linearGradient id="paint4_linear_158_2711" x1="127.504" y1="152.979" x2="127.504" y2="157.535" gradientUnits="userSpaceOnUse">
<stop stop-color="#28B446"/>
<stop offset="1" stop-color="#00F134"/>
</linearGradient>
<linearGradient id="paint5_linear_158_2711" x1="131.647" y1="152.982" x2="131.647" y2="157.538" gradientUnits="userSpaceOnUse">
<stop stop-color="#28B446"/>
<stop offset="1" stop-color="#00F134"/>
</linearGradient>
<linearGradient id="paint6_linear_158_2711" x1="135.842" y1="152.926" x2="135.842" y2="157.593" gradientUnits="userSpaceOnUse">
<stop stop-color="#28B446"/>
<stop offset="1" stop-color="#00F134"/>
</linearGradient>
<linearGradient id="paint7_linear_158_2711" x1="141.939" y1="152.982" x2="141.939" y2="157.535" gradientUnits="userSpaceOnUse">
<stop stop-color="#28B446"/>
<stop offset="1" stop-color="#00F134"/>
</linearGradient>
<linearGradient id="paint8_linear_158_2711" x1="151.814" y1="152.982" x2="151.814" y2="157.599" gradientUnits="userSpaceOnUse">
<stop stop-color="#28B446"/>
<stop offset="1" stop-color="#00F134"/>
</linearGradient>
<linearGradient id="paint9_linear_158_2711" x1="158.84" y1="152.979" x2="158.84" y2="157.535" gradientUnits="userSpaceOnUse">
<stop stop-color="#28B446"/>
<stop offset="1" stop-color="#00F134"/>
</linearGradient>
<linearGradient id="paint10_linear_158_2711" x1="164.878" y1="152.921" x2="164.878" y2="157.538" gradientUnits="userSpaceOnUse">
<stop stop-color="#28B446"/>
<stop offset="1" stop-color="#00F134"/>
</linearGradient>
<linearGradient id="paint11_linear_158_2711" x1="170.925" y1="152.982" x2="170.925" y2="157.535" gradientUnits="userSpaceOnUse">
<stop stop-color="#28B446"/>
<stop offset="1" stop-color="#00F134"/>
</linearGradient>
<linearGradient id="paint12_linear_158_2711" x1="175.203" y1="152.982" x2="175.203" y2="157.535" gradientUnits="userSpaceOnUse">
<stop stop-color="#28B446"/>
<stop offset="1" stop-color="#00F134"/>
</linearGradient>
<linearGradient id="paint13_linear_158_2711" x1="180.707" y1="152.982" x2="180.707" y2="157.557" gradientUnits="userSpaceOnUse">
<stop stop-color="#28B446"/>
<stop offset="1" stop-color="#00F134"/>
</linearGradient>
<linearGradient id="paint14_linear_158_2711" x1="188.671" y1="152.982" x2="188.671" y2="157.535" gradientUnits="userSpaceOnUse">
<stop stop-color="#28B446"/>
<stop offset="1" stop-color="#00F134"/>
</linearGradient>
<linearGradient id="paint15_linear_158_2711" x1="194.484" y1="152.982" x2="194.484" y2="157.535" gradientUnits="userSpaceOnUse">
<stop stop-color="#28B446"/>
<stop offset="1" stop-color="#00F134"/>
</linearGradient>
<linearGradient id="paint16_linear_158_2711" x1="200.872" y1="152.982" x2="200.872" y2="157.535" gradientUnits="userSpaceOnUse">
<stop stop-color="#28B446"/>
<stop offset="1" stop-color="#00F134"/>
</linearGradient>
<linearGradient id="paint17_linear_158_2711" x1="206.746" y1="152.979" x2="206.746" y2="157.535" gradientUnits="userSpaceOnUse">
<stop stop-color="#28B446"/>
<stop offset="1" stop-color="#00F134"/>
</linearGradient>
<linearGradient id="paint18_linear_158_2711" x1="211.942" y1="152.982" x2="211.942" y2="157.535" gradientUnits="userSpaceOnUse">
<stop stop-color="#28B446"/>
<stop offset="1" stop-color="#00F134"/>
</linearGradient>
<linearGradient id="paint19_linear_158_2711" x1="217.446" y1="152.982" x2="217.446" y2="157.557" gradientUnits="userSpaceOnUse">
<stop stop-color="#28B446"/>
<stop offset="1" stop-color="#00F134"/>
</linearGradient>
<linearGradient id="paint20_linear_158_2711" x1="223.124" y1="152.979" x2="223.124" y2="157.535" gradientUnits="userSpaceOnUse">
<stop stop-color="#28B446"/>
<stop offset="1" stop-color="#00F134"/>
</linearGradient>
<linearGradient id="paint21_linear_158_2711" x1="229.144" y1="152.977" x2="229.144" y2="157.535" gradientUnits="userSpaceOnUse">
<stop stop-color="#28B446"/>
<stop offset="1" stop-color="#00F134"/>
</linearGradient>
<linearGradient id="paint22_linear_158_2711" x1="258.561" y1="142.862" x2="258.561" y2="154.967" gradientUnits="userSpaceOnUse">
<stop stop-color="#28B446"/>
<stop offset="1" stop-color="#00F134"/>
</linearGradient>
<linearGradient id="paint23_linear_158_2711" x1="239.076" y1="122.396" x2="239.076" y2="167.077" gradientUnits="userSpaceOnUse">
<stop stop-color="#28B446"/>
<stop offset="1" stop-color="#00F134"/>
</linearGradient>
<linearGradient id="paint24_linear_158_2711" x1="256.047" y1="101.303" x2="256.047" y2="138.365" gradientUnits="userSpaceOnUse">
<stop stop-color="#28B446"/>
<stop offset="1" stop-color="#00F134"/>
</linearGradient>
<linearGradient id="paint25_linear_158_2711" x1="161.59" y1="105.443" x2="161.59" y2="119.249" gradientUnits="userSpaceOnUse">
<stop stop-color="#28B446"/>
<stop offset="1" stop-color="#00F134"/>
</linearGradient>
<linearGradient id="paint26_linear_158_2711" x1="170.188" y1="107.331" x2="170.188" y2="121.702" gradientUnits="userSpaceOnUse">
<stop stop-color="#28B446"/>
<stop offset="1" stop-color="#00F134"/>
</linearGradient>
<linearGradient id="paint27_linear_158_2711" x1="179.42" y1="70.5585" x2="179.42" y2="102.636" gradientUnits="userSpaceOnUse">
<stop stop-color="#28B446"/>
<stop offset="1" stop-color="#00F134"/>
</linearGradient>
<linearGradient id="paint28_linear_158_2711" x1="179.417" y1="104.468" x2="179.417" y2="122.095" gradientUnits="userSpaceOnUse">
<stop stop-color="#28B446"/>
<stop offset="1" stop-color="#00F134"/>
</linearGradient>
<linearGradient id="paint29_linear_158_2711" x1="188.334" y1="63.6" x2="188.334" y2="93.7174" gradientUnits="userSpaceOnUse">
<stop stop-color="#28B446"/>
<stop offset="1" stop-color="#00F134"/>
</linearGradient>
<linearGradient id="paint30_linear_158_2711" x1="188.334" y1="95.5435" x2="188.334" y2="121.705" gradientUnits="userSpaceOnUse">
<stop stop-color="#28B446"/>
<stop offset="1" stop-color="#00F134"/>
</linearGradient>
<linearGradient id="paint31_linear_158_2711" x1="197.25" y1="56.6386" x2="197.25" y2="84.7934" gradientUnits="userSpaceOnUse">
<stop stop-color="#28B446"/>
<stop offset="1" stop-color="#00F134"/>
</linearGradient>
<linearGradient id="paint32_linear_158_2711" x1="197.25" y1="86.6195" x2="197.25" y2="119.249" gradientUnits="userSpaceOnUse">
<stop stop-color="#28B446"/>
<stop offset="1" stop-color="#00F134"/>
</linearGradient>
<linearGradient id="paint33_linear_158_2711" x1="209.773" y1="72.4515" x2="209.773" y2="114.002" gradientUnits="userSpaceOnUse">
<stop stop-color="#28B446"/>
<stop offset="1" stop-color="#00F134"/>
</linearGradient>
<linearGradient id="paint34_linear_158_2711" x1="170.506" y1="77.5171" x2="170.506" y2="105.011" gradientUnits="userSpaceOnUse">
<stop stop-color="#28B446"/>
<stop offset="1" stop-color="#00F134"/>
</linearGradient>
<linearGradient id="paint35_linear_158_2711" x1="161.59" y1="84.4812" x2="161.59" y2="103.617" gradientUnits="userSpaceOnUse">
<stop stop-color="#28B446"/>
<stop offset="1" stop-color="#00F134"/>
</linearGradient>
<linearGradient id="paint36_linear_158_2711" x1="206.153" y1="49.6828" x2="206.153" y2="75.8861" gradientUnits="userSpaceOnUse">
<stop stop-color="#28B446"/>
<stop offset="1" stop-color="#00F134"/>
</linearGradient>
</defs>
</svg>