<svg width="169" height="119" viewBox="0 0 169 119" fill="none" xmlns="http://www.w3.org/2000/svg">
<g clip-path="url(#clip0_275_1989)">
<path d="M0 109.543V105.029H3.31512C3.51828 105.027 3.72075 105.053 3.91669 105.106C4.08398 105.148 4.24122 105.223 4.37919 105.326C4.50851 105.421 4.61188 105.548 4.67998 105.693C4.75306 105.852 4.78847 106.025 4.78348 106.199C4.78563 106.327 4.76929 106.454 4.73496 106.577C4.70623 106.676 4.66026 106.77 4.59912 106.854C4.54268 106.929 4.47375 106.993 4.39537 107.044C4.32173 107.094 4.24109 107.134 4.15603 107.16C4.35989 107.225 4.53851 107.351 4.66704 107.521C4.80276 107.709 4.87319 107.935 4.86757 108.166C4.86972 108.358 4.83458 108.549 4.76407 108.727C4.69834 108.891 4.59794 109.038 4.46975 109.159C4.3378 109.283 4.18134 109.377 4.01049 109.437C3.81704 109.503 3.61353 109.536 3.40891 109.533L0 109.543ZM1.36486 107.579V106.915H3.30542C3.48076 106.929 3.6557 106.885 3.8035 106.79C3.86185 106.737 3.9069 106.671 3.935 106.598C3.9631 106.524 3.97345 106.445 3.96521 106.367C3.97014 106.267 3.94659 106.168 3.89729 106.08C3.84991 106.006 3.78116 105.947 3.7 105.913C3.6034 105.871 3.50078 105.845 3.39598 105.835C3.26381 105.822 3.13102 105.815 2.99816 105.816H0.792395V108.747H3.08549C3.21666 108.748 3.34766 108.737 3.47683 108.714C3.58943 108.699 3.69871 108.665 3.80026 108.614C3.88229 108.571 3.95227 108.508 4.00402 108.431C4.05479 108.346 4.07953 108.249 4.07517 108.15C4.0799 108.07 4.06669 107.989 4.03649 107.915C4.00629 107.84 3.95986 107.773 3.90052 107.718C3.75413 107.608 3.57261 107.554 3.38951 107.567L1.36486 107.579Z" fill="url(#paint0_linear_275_1989)"/>
<path d="M10.23 105.026H11.003V107.547C11.0095 107.857 10.9624 108.166 10.8639 108.46C10.7806 108.709 10.6322 108.932 10.4338 109.105C10.2149 109.288 9.95553 109.417 9.67696 109.482C8.9393 109.649 8.17327 109.649 7.43561 109.482C7.15704 109.417 6.89772 109.288 6.6788 109.105C6.48147 108.931 6.33318 108.708 6.24864 108.46C6.15287 108.165 6.10696 107.857 6.1128 107.547V105.026H6.92783V107.547C6.92378 107.745 6.95218 107.942 7.01192 108.131C7.06309 108.288 7.15854 108.427 7.28684 108.531C7.43807 108.641 7.61302 108.715 7.79785 108.747C8.31642 108.841 8.8479 108.841 9.36647 108.747C9.55101 108.712 9.72486 108.634 9.87425 108.521C10.0025 108.417 10.098 108.278 10.1492 108.121C10.2089 107.932 10.2373 107.735 10.2333 107.538L10.23 105.026Z" fill="url(#paint1_linear_275_1989)"/>
<path d="M12.384 109.543V105.029H13.1764V109.543H12.384Z" fill="url(#paint2_linear_275_1989)"/>
<path d="M14.6285 109.543V105.029H15.4177V108.747H18.4708V109.537L14.6285 109.543Z" fill="url(#paint3_linear_275_1989)"/>
<path d="M19.6547 109.543V105.029H22.2776C22.5796 105.026 22.8793 105.081 23.1606 105.19C23.4219 105.293 23.6596 105.448 23.8592 105.645C24.0573 105.846 24.2134 106.083 24.3185 106.345C24.431 106.63 24.487 106.934 24.4834 107.241C24.4865 107.553 24.4305 107.862 24.3185 108.153C24.2145 108.425 24.0585 108.673 23.8592 108.885C23.661 109.091 23.4235 109.256 23.1606 109.369C22.8817 109.488 22.5811 109.549 22.2776 109.546L19.6547 109.543ZM22.2776 108.753C22.471 108.755 22.6627 108.716 22.8404 108.64C23.0095 108.57 23.1625 108.465 23.29 108.334C23.4185 108.199 23.5185 108.04 23.5843 107.866C23.6566 107.678 23.6928 107.478 23.691 107.276C23.6931 107.076 23.6568 106.877 23.5843 106.69C23.5185 106.517 23.4184 106.359 23.29 106.225C23.1621 106.096 23.0092 105.994 22.8404 105.925C22.6624 105.85 22.4708 105.813 22.2776 105.816H20.4406V108.747L22.2776 108.753Z" fill="url(#paint4_linear_275_1989)"/>
<path d="M25.7965 109.543V105.029H26.5889V109.543H25.7965Z" fill="url(#paint5_linear_275_1989)"/>
<path d="M28.7753 106.238V109.543H28.0217V105.442C28.0152 105.319 28.0531 105.198 28.1284 105.1C28.1647 105.057 28.2105 105.023 28.2621 105.001C28.3137 104.978 28.3698 104.968 28.426 104.971C28.4843 104.971 28.5417 104.984 28.5942 105.01C28.6572 105.04 28.7142 105.082 28.7624 105.132L31.9578 108.295V104.99H32.7017V109.127C32.7098 109.253 32.6706 109.377 32.5917 109.475C32.5567 109.515 32.5133 109.547 32.4647 109.568C32.4161 109.589 32.3634 109.599 32.3103 109.598C32.2417 109.596 32.1742 109.58 32.1119 109.551C32.0496 109.522 31.9939 109.481 31.9481 109.43L28.7753 106.238Z" fill="url(#paint6_linear_275_1989)"/>
<path d="M36.1687 109.543C35.7274 109.546 35.2958 109.414 34.932 109.165C34.5682 108.916 34.2898 108.562 34.1344 108.15C34.0223 107.859 33.9664 107.55 33.9694 107.238C33.9655 106.928 34.0215 106.62 34.1344 106.332C34.2377 106.074 34.3937 105.84 34.5924 105.645C34.7912 105.45 35.0284 105.299 35.289 105.2C35.5682 105.091 35.8657 105.036 36.1655 105.039H38.6203V105.829H36.1655C35.9723 105.826 35.7807 105.863 35.6027 105.938C35.4341 106.005 35.2819 106.107 35.1564 106.238C35.0287 106.371 34.9287 106.528 34.8621 106.699C34.7901 106.888 34.755 107.088 34.7586 107.289C34.7558 107.491 34.7909 107.691 34.8621 107.879C34.9278 108.053 35.0279 108.212 35.1564 108.347C35.2818 108.479 35.4339 108.584 35.6027 108.653C35.7805 108.729 35.9721 108.768 36.1655 108.766H38.1061V107.592H36.062V106.928H38.9017V109.556L36.1687 109.543Z" fill="url(#paint7_linear_275_1989)"/>
<path d="M46.2661 108.034L45.5611 109.356C45.5214 109.433 45.4609 109.498 45.3864 109.543C45.3172 109.585 45.2376 109.606 45.1568 109.604C45.0716 109.607 44.9876 109.585 44.9147 109.541C44.8419 109.496 44.7833 109.432 44.746 109.356L42.4044 105.026H43.3521L45.1827 108.498L45.8683 107.27L44.691 105.013H45.6387L47.3917 108.486L49.2352 105.013H50.1181L47.7765 109.343C47.7367 109.421 47.6749 109.486 47.5986 109.53C47.5281 109.571 47.4475 109.593 47.3658 109.591C47.285 109.593 47.2054 109.572 47.1361 109.53C47.0616 109.485 47.0012 109.42 46.9615 109.343L46.2661 108.034Z" fill="url(#paint8_linear_275_1989)"/>
<path d="M51.2307 109.543V105.029H55.2735V105.819H52.0166V108.747H55.28V109.537L51.2307 109.543ZM52.5956 107.579V106.915H55.1054V107.579H52.5956Z" fill="url(#paint9_linear_275_1989)"/>
<path d="M61.3023 109.543L60.6231 108.405H58.482L58.8572 107.76H60.2447L59.2227 106.077L57.1657 109.543H56.2633L58.8669 105.219C58.9076 105.147 58.9626 105.083 59.0286 105.032C59.095 104.986 59.1742 104.963 59.255 104.965C59.3338 104.962 59.4112 104.986 59.4749 105.032C59.5399 105.083 59.5938 105.147 59.6334 105.219L62.2435 109.543H61.3023Z" fill="url(#paint10_linear_275_1989)"/>
<path d="M63.3657 109.543V105.029H64.1549V108.747H67.2016V109.537L63.3657 109.543Z" fill="url(#paint11_linear_275_1989)"/>
<path d="M69.1454 109.543V105.816H67.428V105.026H71.6584V105.816H69.9378V109.543H69.1454Z" fill="url(#paint12_linear_275_1989)"/>
<path d="M72.8065 109.559V105.026H73.5957V109.559H72.8065ZM76.4515 109.559V107.599H74.1714V106.896H76.4515V105.026H77.2407V109.559H76.4515Z" fill="url(#paint13_linear_275_1989)"/>
<path d="M82.5514 109.543V105.816H80.834V105.026H85.0612V105.816H83.3438V109.543H82.5514Z" fill="url(#paint14_linear_275_1989)"/>
<path d="M88.1692 109.543C87.869 109.545 87.5716 109.484 87.296 109.366C87.0305 109.251 86.7908 109.085 86.5913 108.876C86.3919 108.667 86.2366 108.42 86.1349 108.15C86.0228 107.859 85.9669 107.55 85.9699 107.238C85.966 106.928 86.022 106.62 86.1349 106.332C86.2383 106.069 86.3959 105.83 86.5974 105.632C86.7989 105.443 87.0364 105.296 87.296 105.2C87.5741 105.091 87.8705 105.036 88.1692 105.039H89.2721C89.5804 105.036 89.8865 105.09 90.1745 105.2C90.4369 105.302 90.6752 105.457 90.8741 105.656C91.0729 105.854 91.2279 106.092 91.3291 106.354C91.4391 106.64 91.4939 106.944 91.4908 107.251C91.4939 107.562 91.4379 107.872 91.3259 108.163C91.2241 108.433 91.0689 108.68 90.8694 108.889C90.6699 109.098 90.4303 109.264 90.1648 109.379C89.8825 109.498 89.5787 109.558 89.2721 109.556L88.1692 109.543ZM89.2721 108.753C89.4687 108.755 89.6636 108.717 89.8446 108.64C90.015 108.57 90.1692 108.466 90.2974 108.334C90.4269 108.199 90.528 108.041 90.5949 107.866C90.6643 107.677 90.6994 107.478 90.6984 107.276C90.6999 107.076 90.6648 106.877 90.5949 106.69C90.528 106.516 90.4268 106.359 90.2974 106.225C90.1689 106.095 90.0147 105.993 89.8446 105.925C89.6634 105.85 89.4685 105.813 89.2721 105.816H88.1692C87.976 105.813 87.7844 105.85 87.6065 105.925C87.4387 105.994 87.2868 106.096 87.1601 106.225C87.0345 106.359 86.9357 106.516 86.869 106.686C86.7959 106.874 86.7597 107.075 86.7623 107.276C86.7606 107.478 86.7968 107.678 86.869 107.866C86.9349 108.04 87.0337 108.198 87.1601 108.334C87.2865 108.465 87.4383 108.569 87.6065 108.64C87.7842 108.716 87.9758 108.755 88.1692 108.753H89.2721Z" fill="url(#paint15_linear_275_1989)"/>
<path d="M94.8222 109.543C94.5219 109.545 94.2246 109.484 93.9489 109.366C93.6834 109.251 93.4438 109.085 93.2443 108.876C93.0448 108.667 92.8896 108.42 92.7878 108.15C92.6758 107.859 92.6198 107.55 92.6229 107.238C92.619 106.928 92.675 106.62 92.7878 106.332C92.8913 106.069 93.0488 105.83 93.2503 105.632C93.4507 105.438 93.6883 105.287 93.9489 105.187C94.227 105.078 94.5234 105.024 94.8222 105.026H97.277V105.816H94.8222C94.629 105.813 94.4374 105.85 94.2594 105.925C94.0916 105.994 93.9397 106.096 93.8131 106.225C93.6875 106.359 93.5887 106.516 93.522 106.686C93.4489 106.874 93.4127 107.075 93.4153 107.276C93.4135 107.478 93.4497 107.678 93.522 107.866C93.5879 108.04 93.6867 108.198 93.8131 108.334C93.9394 108.465 94.0913 108.569 94.2594 108.64C94.4372 108.716 94.6288 108.755 94.8222 108.753H96.7627V107.579H94.7219V106.915H97.5616V109.543H94.8222Z" fill="url(#paint16_linear_275_1989)"/>
<path d="M98.9103 109.543V105.029H102.953V105.819H99.6962V108.747H102.96V109.537L98.9103 109.543ZM100.275 107.579V106.915H102.785V107.579H100.275Z" fill="url(#paint17_linear_275_1989)"/>
<path d="M105.712 109.543V105.816H103.991V105.026H108.222V105.816H106.504V109.543H105.712Z" fill="url(#paint18_linear_275_1989)"/>
<path d="M109.37 109.559V105.026H110.159V109.559H109.37ZM113.012 109.559V107.599H110.732V106.896H113.012V105.026H113.804V109.559H113.012Z" fill="url(#paint19_linear_275_1989)"/>
<path d="M115.211 109.543V105.029H119.254V105.819H115.997V108.747H119.26V109.537L115.211 109.543ZM116.576 107.579V106.915H119.086V107.579H116.576Z" fill="url(#paint20_linear_275_1989)"/>
<path d="M124.768 109.543L123.62 108.289H121.928V107.592H123.814C123.932 107.601 124.051 107.585 124.162 107.545C124.274 107.505 124.376 107.442 124.461 107.36C124.617 107.171 124.696 106.931 124.681 106.686C124.688 106.569 124.672 106.452 124.633 106.341C124.594 106.231 124.533 106.129 124.454 106.041C124.275 105.889 124.043 105.813 123.808 105.829H121.34V109.556H120.557V105.042H123.791C124.027 105.038 124.262 105.078 124.484 105.158C124.678 105.227 124.855 105.34 125.001 105.487C125.146 105.633 125.257 105.811 125.324 106.006C125.402 106.226 125.44 106.457 125.438 106.69C125.448 107.022 125.363 107.351 125.192 107.638C125.028 107.89 124.786 108.083 124.503 108.186L125.868 109.559L124.768 109.543Z" fill="url(#paint21_linear_275_1989)"/>
<path d="M153.311 96.3556C152.987 95.9236 152.664 95.5044 152.285 94.995L144.009 105.587L147.479 102.298L148.01 101.892C148.333 101.637 148.54 101.65 148.789 102.005C149.258 102.675 151.163 105.316 152.043 106.535L152.12 106.638L152.217 106.777L152.289 106.877L152.382 107.006H161.005L160.95 106.935C159.029 104.31 155.209 98.9867 153.311 96.3556Z" fill="url(#paint22_linear_275_1989)"/>
<path d="M150.911 92.9475C146.586 99.0512 141.163 106.167 135.862 111.278C133.132 113.909 130.26 116.369 126.751 117.907C125.517 118.454 124.209 118.814 122.87 118.977C122.041 119.077 121.2 119.002 120.402 118.758C117.423 117.414 116 114.825 115.318 112.677H117.168C117.332 112.827 117.504 112.967 117.685 113.096C118.225 113.508 118.858 113.781 119.529 113.889C120.2 113.998 120.888 113.939 121.531 113.719C123.853 113.003 125.839 111.7 127.718 110.22C131.23 107.431 134.212 104.117 136.994 100.628C138.747 98.4418 140.383 96.1622 142.081 93.9374C142.167 93.8531 142.235 93.7527 142.281 93.642C142.328 93.5313 142.352 93.4125 142.352 93.2925C142.352 93.1725 142.328 93.0537 142.281 92.943C142.235 92.8323 142.167 92.7319 142.081 92.6477C141.085 91.287 133.045 80.0244 129.209 74.714H137.815C142.198 80.7693 149.459 90.9517 150.911 92.9475Z" fill="url(#paint23_linear_275_1989)"/>
<path d="M164.449 59.7983C163.935 55.6421 160.775 53.5399 156.622 53.8236C154.297 53.9816 152.25 55.0972 150.299 56.2838C145.391 59.2878 140.973 63.0228 137.197 67.3593C136.748 67.8623 136.308 68.3685 135.878 68.8909C135.732 69.065 135.593 69.2423 135.451 69.4229C135.498 69.459 135.544 69.4978 135.587 69.539C135.91 69.2907 136.211 69.0295 136.521 68.7651C136.9 68.4427 137.269 68.1041 137.641 67.7688C137.75 67.6785 137.857 67.5818 137.964 67.4851C141.226 64.5607 144.777 61.9733 148.563 59.7628C150.354 58.7375 152.191 57.8121 154.258 57.4478C156.48 57.0544 158.188 58.0152 158.608 59.9627C158.783 60.6659 158.82 61.3961 158.718 62.1133C158.439 63.8613 158.028 65.5859 157.489 67.2723C155.526 72.8374 152.033 78.8798 148.922 83.9065L144.717 79.5763L146.493 82.2944C148.262 85.0028 150.028 87.7112 151.875 90.5325C152.124 90.2101 152.321 90.0069 152.466 89.7748C154.203 86.9664 156.024 84.2032 157.641 81.3303C160.048 77.0774 162.098 72.6569 163.463 67.9494C164.226 65.2925 164.799 62.6034 164.449 59.7983Z" fill="url(#paint24_linear_275_1989)"/>
<path d="M52.4954 67.7752C54.6819 69.2954 57.0276 70.5743 59.4911 71.5896V57.9056L52.4954 64.8959V67.7752Z" fill="url(#paint25_linear_275_1989)"/>
<path d="M61.0532 59.7757V72.3119C63.3226 73.1133 65.6659 73.6889 68.0489 74.0304V65.7794L67.5638 66.263L61.0532 59.7757Z" fill="url(#paint26_linear_275_1989)"/>
<path d="M70.2417 55.1198L77.2342 48.1488V23.3215L70.2417 28.761V55.1198Z" fill="url(#paint27_linear_275_1989)"/>
<path d="M70.2417 74.2465C71.3899 74.3561 72.5607 74.4141 73.7379 74.4141C74.9152 74.4141 76.086 74.3561 77.2342 74.2465V56.9351L70.2417 63.9061V74.2465Z" fill="url(#paint28_linear_275_1989)"/>
<path d="M86.109 39.3013V16.4215L79.1101 21.8609V46.2787L86.109 39.3013Z" fill="url(#paint29_linear_275_1989)"/>
<path d="M79.1101 74.024C81.494 73.6845 83.8384 73.111 86.1091 72.3119V48.0972L79.1101 55.0714V74.024Z" fill="url(#paint30_linear_275_1989)"/>
<path d="M87.9849 14.9609V37.4312L94.9806 30.4537V9.89547V9.52145L94.7445 9.70523L87.9849 14.9609Z" fill="url(#paint31_linear_275_1989)"/>
<path d="M87.9849 71.5896C90.4487 70.575 92.7944 69.296 94.9806 67.7752V39.2432L87.9849 46.2174V71.5896Z" fill="url(#paint32_linear_275_1989)"/>
<path d="M106.967 27.2939C108.314 31.779 108.733 36.4902 108.198 41.1416C107.663 45.793 106.186 50.2875 103.855 54.3524V30.3957L96.8629 37.3667L96.8435 37.3828V37.4505L96.8629 37.4312V66.3823C99.5089 64.298 101.861 61.8676 103.855 59.1566C107.4 54.3322 109.724 48.7265 110.632 42.8153C111.54 36.9041 111.003 30.8619 109.069 25.2013L106.967 27.2939Z" fill="url(#paint33_linear_275_1989)"/>
<path d="M61.3669 50.9894L67.8775 57.4735L68.3659 56.9899V30.228V30.2184L61.3669 35.661V35.6675V50.9894Z" fill="url(#paint34_linear_275_1989)"/>
<path d="M59.4911 49.1161V37.1249L52.4954 42.5611V56.0935L59.4911 49.1161Z" fill="url(#paint35_linear_275_1989)"/>
<path d="M103.852 2.62785L96.8888 8.04149L96.837 8.08018V28.603L103.852 21.6127V2.62785Z" fill="url(#paint36_linear_275_1989)"/>
<path d="M106.226 13.5065L109.907 17.1758L96.8404 30.2021L67.8808 59.0726L59.4911 50.7087L50.6195 59.5627V44.0215L43.627 49.4577V54.3522C39.7545 47.6071 38.2751 39.7577 39.4279 32.0713C40.5806 24.385 44.2981 17.3102 49.9802 11.9891C55.6622 6.66814 62.9773 3.41145 70.7444 2.74488C78.5114 2.07831 86.2772 4.04075 92.7878 8.31537L94.971 6.61615C89.3709 2.76001 82.8198 0.50369 76.0263 0.0912519C69.2329 -0.321187 62.4556 1.12595 56.4275 4.27614C50.3994 7.42633 45.3501 12.1597 41.8255 17.9642C38.301 23.7686 36.4355 30.4234 36.4308 37.2085C36.4308 38.1242 36.4642 39.0324 36.531 39.933C37.0421 46.8805 39.5083 53.5433 43.6464 59.1564C44.4601 60.2608 45.3324 61.321 46.2597 62.3324C46.5152 62.6129 46.774 62.8805 47.0359 63.1514C47.9567 64.0986 48.9284 64.9952 49.9468 65.8372L50.6292 65.1569L59.5008 56.3126L67.8905 64.67L96.8501 35.7962L103.855 28.8059L110.001 22.6797L112.708 19.9842L116.501 23.7695L120.273 9.75986L106.226 13.5065Z" fill="#404040"/>
<path d="M0.135864 102.314V80.6016H19.577V84.3966H3.91672V98.5224H19.6126V102.314H0.135864ZM6.69495 92.8766V89.6813H18.7685V92.8766H6.69495Z" fill="#404040"/>
<path d="M48.5754 102.314L45.3153 96.8489H35.0044L36.8027 93.7729H43.4815L38.6301 85.6509L28.7429 102.314H24.3993L36.9224 81.527C37.117 81.1775 37.3824 80.8722 37.7018 80.6306C38.0165 80.4101 38.3943 80.297 38.7788 80.3082C39.1595 80.2957 39.5336 80.4091 39.8429 80.6306C40.1538 80.8766 40.4132 81.1812 40.6062 81.527L53.1584 102.314H48.5754Z" fill="#404040"/>
<path d="M65.5326 102.314C64.0867 102.328 62.6542 102.038 61.3281 101.463C60.0677 100.914 58.928 100.123 57.9741 99.135C57.0093 98.1221 56.2552 96.9287 55.7554 95.6237C55.219 94.223 54.9502 92.7347 54.963 91.2354C54.9448 89.7441 55.2138 88.2632 55.7554 86.8729C56.2522 85.6112 57.0079 84.4668 57.9741 83.5132C58.9364 82.5796 60.0769 81.8483 61.3281 81.3625C62.6688 80.8467 64.0955 80.5885 65.5326 80.6016H77.3344V84.3966H65.5326C64.6021 84.3872 63.6792 84.5649 62.819 84.919C62.0142 85.2517 61.2857 85.7443 60.678 86.3667C60.0672 87.003 59.589 87.7537 59.2711 88.5754C58.9221 89.4804 58.7487 90.4432 58.76 91.4127C58.7523 92.382 58.9256 93.3442 59.2711 94.2502C59.5851 95.0881 60.0634 95.8554 60.678 96.5072C61.2836 97.1402 62.0121 97.6437 62.819 97.9871C63.6767 98.3511 64.6005 98.5345 65.5326 98.5256H74.8473V92.8766H65.0216V89.6813H78.6831V102.314H65.5326Z" fill="#404040"/>
<path d="M85.1841 102.314V80.6016H88.9779V98.5224H103.626V102.314H85.1841Z" fill="#404040"/>
<path d="M109.354 102.314V80.6016H128.798V84.3966H113.131V98.5224H128.83V102.314H109.354ZM115.916 92.8766V89.6813H127.989V92.8766H115.916Z" fill="#404040"/>
<path d="M166.548 84.603H165.578L164.336 83.1617H163.55V84.603H162.719V80.2856H164.776C165.795 80.2856 166.332 80.9692 166.332 81.714C166.352 82.0349 166.251 82.3518 166.048 82.6023C165.846 82.8528 165.557 83.019 165.238 83.0682L166.548 84.5385V84.603ZM163.534 81.0562V82.4362H164.776C164.867 82.4362 164.957 82.4184 165.041 82.3837C165.125 82.349 165.201 82.2982 165.265 82.2341C165.33 82.1701 165.381 82.094 165.415 82.0103C165.45 81.9266 165.468 81.8368 165.468 81.7462C165.468 81.6556 165.45 81.5659 165.415 81.4822C165.381 81.3985 165.33 81.3224 165.265 81.2583C165.201 81.1942 165.125 81.1434 165.041 81.1087C164.957 81.0741 164.867 81.0562 164.776 81.0562H163.534Z" fill="#404040"/>
<path d="M164.634 78.1705C163.789 78.1863 162.968 78.4506 162.273 78.9301C161.579 79.4096 161.042 80.0829 160.729 80.8656C160.417 81.6483 160.344 82.5054 160.519 83.3295C160.694 84.1536 161.109 84.9078 161.712 85.4976C162.315 86.0873 163.079 86.4864 163.909 86.6445C164.739 86.8027 165.597 86.713 166.376 86.3867C167.155 86.0604 167.82 85.5119 168.287 84.8103C168.755 84.1086 169.004 83.285 169.003 82.4427C168.991 81.2988 168.524 80.2063 167.705 79.4053C166.886 78.6043 165.781 78.1601 164.634 78.1705ZM164.634 86.1184C163.908 86.1051 163.203 85.8785 162.606 85.4671C162.01 85.0556 161.548 84.4777 161.279 83.8058C161.011 83.1338 160.947 82.3978 161.097 81.69C161.246 80.9822 161.602 80.3342 162.12 79.8272C162.637 79.3202 163.293 78.9768 164.006 78.8402C164.718 78.7035 165.455 78.7796 166.124 79.059C166.794 79.3383 167.365 79.8085 167.768 80.4104C168.17 81.0124 168.385 81.7194 168.386 82.4427C168.376 83.4258 167.976 84.3651 167.272 85.0543C166.569 85.7434 165.62 86.1261 164.634 86.1184Z" fill="#404040"/>
</g>
<defs>
<linearGradient id="paint0_linear_275_1989" x1="2.43394" y1="105.029" x2="2.43394" y2="109.543" gradientUnits="userSpaceOnUse">
<stop stop-color="#28B446"/>
<stop offset="1" stop-color="#00F134"/>
</linearGradient>
<linearGradient id="paint1_linear_275_1989" x1="8.55795" y1="105.026" x2="8.55795" y2="109.608" gradientUnits="userSpaceOnUse">
<stop stop-color="#28B446"/>
<stop offset="1" stop-color="#00F134"/>
</linearGradient>
<linearGradient id="paint2_linear_275_1989" x1="12.7802" y1="105.029" x2="12.7802" y2="109.543" gradientUnits="userSpaceOnUse">
<stop stop-color="#28B446"/>
<stop offset="1" stop-color="#00F134"/>
</linearGradient>
<linearGradient id="paint3_linear_275_1989" x1="16.5497" y1="105.029" x2="16.5497" y2="109.543" gradientUnits="userSpaceOnUse">
<stop stop-color="#28B446"/>
<stop offset="1" stop-color="#00F134"/>
</linearGradient>
<linearGradient id="paint4_linear_275_1989" x1="22.0691" y1="105.029" x2="22.0691" y2="109.546" gradientUnits="userSpaceOnUse">
<stop stop-color="#28B446"/>
<stop offset="1" stop-color="#00F134"/>
</linearGradient>
<linearGradient id="paint5_linear_275_1989" x1="26.1927" y1="105.029" x2="26.1927" y2="109.543" gradientUnits="userSpaceOnUse">
<stop stop-color="#28B446"/>
<stop offset="1" stop-color="#00F134"/>
</linearGradient>
<linearGradient id="paint6_linear_275_1989" x1="30.3619" y1="104.971" x2="30.3619" y2="109.598" gradientUnits="userSpaceOnUse">
<stop stop-color="#28B446"/>
<stop offset="1" stop-color="#00F134"/>
</linearGradient>
<linearGradient id="paint7_linear_275_1989" x1="36.4355" y1="105.039" x2="36.4355" y2="109.556" gradientUnits="userSpaceOnUse">
<stop stop-color="#28B446"/>
<stop offset="1" stop-color="#00F134"/>
</linearGradient>
<linearGradient id="paint8_linear_275_1989" x1="46.2613" y1="105.013" x2="46.2613" y2="109.605" gradientUnits="userSpaceOnUse">
<stop stop-color="#28B446"/>
<stop offset="1" stop-color="#00F134"/>
</linearGradient>
<linearGradient id="paint9_linear_275_1989" x1="53.2554" y1="105.029" x2="53.2554" y2="109.543" gradientUnits="userSpaceOnUse">
<stop stop-color="#28B446"/>
<stop offset="1" stop-color="#00F134"/>
</linearGradient>
<linearGradient id="paint10_linear_275_1989" x1="59.2534" y1="104.964" x2="59.2534" y2="109.543" gradientUnits="userSpaceOnUse">
<stop stop-color="#28B446"/>
<stop offset="1" stop-color="#00F134"/>
</linearGradient>
<linearGradient id="paint11_linear_275_1989" x1="65.2836" y1="105.029" x2="65.2836" y2="109.543" gradientUnits="userSpaceOnUse">
<stop stop-color="#28B446"/>
<stop offset="1" stop-color="#00F134"/>
</linearGradient>
<linearGradient id="paint12_linear_275_1989" x1="69.5432" y1="105.026" x2="69.5432" y2="109.543" gradientUnits="userSpaceOnUse">
<stop stop-color="#28B446"/>
<stop offset="1" stop-color="#00F134"/>
</linearGradient>
<linearGradient id="paint13_linear_275_1989" x1="75.0236" y1="105.026" x2="75.0236" y2="109.559" gradientUnits="userSpaceOnUse">
<stop stop-color="#28B446"/>
<stop offset="1" stop-color="#00F134"/>
</linearGradient>
<linearGradient id="paint14_linear_275_1989" x1="82.9476" y1="105.026" x2="82.9476" y2="109.543" gradientUnits="userSpaceOnUse">
<stop stop-color="#28B446"/>
<stop offset="1" stop-color="#00F134"/>
</linearGradient>
<linearGradient id="paint15_linear_275_1989" x1="88.7303" y1="105.039" x2="88.7303" y2="109.556" gradientUnits="userSpaceOnUse">
<stop stop-color="#28B446"/>
<stop offset="1" stop-color="#00F134"/>
</linearGradient>
<linearGradient id="paint16_linear_275_1989" x1="95.0921" y1="105.026" x2="95.0921" y2="109.543" gradientUnits="userSpaceOnUse">
<stop stop-color="#28B446"/>
<stop offset="1" stop-color="#00F134"/>
</linearGradient>
<linearGradient id="paint17_linear_275_1989" x1="100.935" y1="105.029" x2="100.935" y2="109.543" gradientUnits="userSpaceOnUse">
<stop stop-color="#28B446"/>
<stop offset="1" stop-color="#00F134"/>
</linearGradient>
<linearGradient id="paint18_linear_275_1989" x1="106.107" y1="105.026" x2="106.107" y2="109.543" gradientUnits="userSpaceOnUse">
<stop stop-color="#28B446"/>
<stop offset="1" stop-color="#00F134"/>
</linearGradient>
<linearGradient id="paint19_linear_275_1989" x1="111.587" y1="105.026" x2="111.587" y2="109.559" gradientUnits="userSpaceOnUse">
<stop stop-color="#28B446"/>
<stop offset="1" stop-color="#00F134"/>
</linearGradient>
<linearGradient id="paint20_linear_275_1989" x1="117.236" y1="105.029" x2="117.236" y2="109.543" gradientUnits="userSpaceOnUse">
<stop stop-color="#28B446"/>
<stop offset="1" stop-color="#00F134"/>
</linearGradient>
<linearGradient id="paint21_linear_275_1989" x1="123.212" y1="105.042" x2="123.212" y2="109.559" gradientUnits="userSpaceOnUse">
<stop stop-color="#28B446"/>
<stop offset="1" stop-color="#00F134"/>
</linearGradient>
<linearGradient id="paint22_linear_275_1989" x1="152.507" y1="94.995" x2="152.507" y2="107.006" gradientUnits="userSpaceOnUse">
<stop stop-color="#28B446"/>
<stop offset="1" stop-color="#00F134"/>
</linearGradient>
<linearGradient id="paint23_linear_275_1989" x1="133.114" y1="74.714" x2="133.114" y2="119.02" gradientUnits="userSpaceOnUse">
<stop stop-color="#28B446"/>
<stop offset="1" stop-color="#00F134"/>
</linearGradient>
<linearGradient id="paint24_linear_275_1989" x1="150.003" y1="53.7982" x2="150.003" y2="90.5325" gradientUnits="userSpaceOnUse">
<stop stop-color="#28B446"/>
<stop offset="1" stop-color="#00F134"/>
</linearGradient>
<linearGradient id="paint25_linear_275_1989" x1="55.9932" y1="57.9056" x2="55.9932" y2="71.5896" gradientUnits="userSpaceOnUse">
<stop stop-color="#28B446"/>
<stop offset="1" stop-color="#00F134"/>
</linearGradient>
<linearGradient id="paint26_linear_275_1989" x1="64.5511" y1="59.7757" x2="64.5511" y2="74.0304" gradientUnits="userSpaceOnUse">
<stop stop-color="#28B446"/>
<stop offset="1" stop-color="#00F134"/>
</linearGradient>
<linearGradient id="paint27_linear_275_1989" x1="73.7379" y1="23.3215" x2="73.7379" y2="55.1198" gradientUnits="userSpaceOnUse">
<stop stop-color="#28B446"/>
<stop offset="1" stop-color="#00F134"/>
</linearGradient>
<linearGradient id="paint28_linear_275_1989" x1="73.7379" y1="56.9351" x2="73.7379" y2="74.4141" gradientUnits="userSpaceOnUse">
<stop stop-color="#28B446"/>
<stop offset="1" stop-color="#00F134"/>
</linearGradient>
<linearGradient id="paint29_linear_275_1989" x1="82.6096" y1="16.4215" x2="82.6096" y2="46.2787" gradientUnits="userSpaceOnUse">
<stop stop-color="#28B446"/>
<stop offset="1" stop-color="#00F134"/>
</linearGradient>
<linearGradient id="paint30_linear_275_1989" x1="82.6096" y1="48.0972" x2="82.6096" y2="74.024" gradientUnits="userSpaceOnUse">
<stop stop-color="#28B446"/>
<stop offset="1" stop-color="#00F134"/>
</linearGradient>
<linearGradient id="paint31_linear_275_1989" x1="91.4827" y1="9.52145" x2="91.4827" y2="37.4312" gradientUnits="userSpaceOnUse">
<stop stop-color="#28B446"/>
<stop offset="1" stop-color="#00F134"/>
</linearGradient>
<linearGradient id="paint32_linear_275_1989" x1="91.4827" y1="39.2432" x2="91.4827" y2="71.5896" gradientUnits="userSpaceOnUse">
<stop stop-color="#28B446"/>
<stop offset="1" stop-color="#00F134"/>
</linearGradient>
<linearGradient id="paint33_linear_275_1989" x1="103.952" y1="25.2013" x2="103.952" y2="66.3823" gradientUnits="userSpaceOnUse">
<stop stop-color="#28B446"/>
<stop offset="1" stop-color="#00F134"/>
</linearGradient>
<linearGradient id="paint34_linear_275_1989" x1="64.8664" y1="30.2184" x2="64.8664" y2="57.4735" gradientUnits="userSpaceOnUse">
<stop stop-color="#28B446"/>
<stop offset="1" stop-color="#00F134"/>
</linearGradient>
<linearGradient id="paint35_linear_275_1989" x1="55.9932" y1="37.1249" x2="55.9932" y2="56.0935" gradientUnits="userSpaceOnUse">
<stop stop-color="#28B446"/>
<stop offset="1" stop-color="#00F134"/>
</linearGradient>
<linearGradient id="paint36_linear_275_1989" x1="100.345" y1="2.62785" x2="100.345" y2="28.603" gradientUnits="userSpaceOnUse">
<stop stop-color="#28B446"/>
<stop offset="1" stop-color="#00F134"/>
</linearGradient>
<clipPath id="clip0_275_1989">
<rect width="169" height="119" fill="white"/>
</clipPath>
</defs>
</svg>
