<svg width="23" height="23" viewBox="0 0 23 23" fill="none" xmlns="http://www.w3.org/2000/svg">
<g clip-path="url(#clip0_124_2277)">
<path d="M11.5 1.99997C9.4233 1.99997 7.39323 2.61578 5.66652 3.76954C3.9398 4.92329 2.59399 6.56317 1.79927 8.48179C1.00455 10.4004 0.796615 12.5116 1.20176 14.5484C1.6069 16.5852 2.60693 18.4561 4.07538 19.9246C5.54383 21.393 7.41475 22.3931 9.45156 22.7982C11.4884 23.2034 13.5996 22.9954 15.5182 22.2007C17.4368 21.406 19.0767 20.0602 20.2304 18.3335C21.3842 16.6067 22 14.5767 22 12.5C21.9968 9.71617 20.8896 7.0473 18.9211 5.07886C16.9527 3.11041 14.2838 2.00315 11.5 1.99997ZM11.5 21.5C9.11305 21.5 6.82387 20.5518 5.13604 18.8639C3.44822 17.1761 2.5 14.8869 2.5 12.5C2.5 10.113 3.44822 7.82383 5.13604 6.13601C6.82387 4.44818 9.11305 3.49997 11.5 3.49997V12.5L17.8608 18.8607C17.0266 19.6979 16.0352 20.362 14.9437 20.8149C13.8521 21.2678 12.6818 21.5006 11.5 21.5Z" fill="black"/>
</g>
<defs>
<clipPath id="clip0_124_2277">
<rect width="23" height="23" fill="white"/>
</clipPath>
</defs>
</svg>
